<svg width="20" height="23" viewBox="0 0 20 23" fill="none" xmlns="http://www.w3.org/2000/svg">
<g clip-path="url(#clip0_394_3087)">
<path d="M18.9953 8.234C18.9953 6.24912 18.2069 4.34554 16.8033 2.94201C15.3998 1.53849 13.4962 0.75 11.5113 0.75C9.52646 0.75 7.62287 1.53849 6.21935 2.94201C4.81583 4.34554 4.02734 6.24912 4.02734 8.234C4.0399 9.1836 4.1884 10.1265 4.46834 11.034C4.90254 10.9097 5.35171 10.8454 5.80334 10.843C6.75639 10.8431 7.68766 11.1281 8.4775 11.6614C9.26734 12.1947 9.87967 12.9521 10.2358 13.8361C10.592 14.7201 10.6757 15.6904 10.4762 16.6223C10.2767 17.5542 9.80316 18.4053 9.11634 19.066C9.87359 19.9857 10.6784 20.8652 11.5273 21.701C11.5273 21.701 18.9993 14.562 18.9993 8.234H18.9953ZM14.5143 8.234C14.5143 8.82573 14.3388 9.40418 14.01 9.89613C13.6812 10.3881 13.2138 10.7714 12.667 10.9977C12.1203 11.224 11.5187 11.283 10.9384 11.1672C10.358 11.0515 9.82511 10.7662 9.40697 10.3475C8.98883 9.92884 8.70428 9.39552 8.58932 8.81506C8.47437 8.2346 8.53417 7.63308 8.76117 7.08662C8.98816 6.54016 9.37215 6.0733 9.86454 5.74513C10.3569 5.41695 10.9356 5.24221 11.5273 5.243C11.9203 5.24234 12.3095 5.31926 12.6727 5.46933C13.0359 5.61941 13.3659 5.8397 13.6438 6.11757C13.9216 6.39544 14.1419 6.72544 14.292 7.08862C14.4421 7.4518 14.519 7.84103 14.5183 8.234H14.5143Z" stroke="#7D94CC" stroke-width="1.5"/>
<path d="M4.02895 19.729C4.67708 19.729 5.31066 19.5369 5.84956 19.1768C6.38846 18.8167 6.80848 18.3049 7.0565 17.7061C7.30453 17.1073 7.36943 16.4484 7.24298 15.8127C7.11654 15.1771 6.80444 14.5931 6.34614 14.1349C5.88784 13.6766 5.30394 13.3645 4.66826 13.238C4.03258 13.1116 3.37369 13.1765 2.7749 13.4245C2.1761 13.6725 1.6643 14.0926 1.30422 14.6315C0.944141 15.1704 0.751954 15.8039 0.751954 16.4521C0.751691 16.8825 0.836271 17.3087 1.00086 17.7064C1.16545 18.1041 1.40682 18.4655 1.71117 18.7698C2.01552 19.0742 2.37688 19.3155 2.77458 19.4801C3.17229 19.6447 3.59854 19.7293 4.02895 19.729V19.729Z" stroke="#7D94CC" stroke-width="1.5"/>
</g>
<defs>
<clipPath id="clip0_394_3087">
<rect width="19.746" height="22.739" fill="white"/>
</clipPath>
</defs>
</svg>
