<svg width="35" height="35" viewBox="0 0 35 35" fill="none" xmlns="http://www.w3.org/2000/svg">
<path fill-rule="evenodd" clip-rule="evenodd" d="M29.8746 5.12574C36.7086 11.96 36.7086 23.0406 29.8746 29.8749C23.0404 36.7089 11.9598 36.7089 5.1255 29.8749C-1.7085 23.0406 -1.7085 11.96 5.1255 5.12574C11.9598 -1.70826 23.0404 -1.70826 29.8746 5.12574ZM26.6623 16.506C27.2115 16.506 27.6564 16.9512 27.6564 17.5C27.6564 18.0492 27.2112 18.4941 26.6623 18.4941H18.4941V26.6625C18.4941 27.2117 18.0489 27.6566 17.5001 27.6566C16.9512 27.6566 16.5063 27.2114 16.5063 26.6625V18.4944H8.33756C7.7884 18.4944 7.34321 18.0492 7.34321 17.5003C7.34321 16.9514 7.7884 16.5062 8.33756 16.5062H16.506V8.33752C16.506 7.78865 16.9512 7.34345 17.4998 7.34345C18.0489 7.34345 18.4939 7.78865 18.4939 8.33752V16.506H26.6623Z" fill="white"/>
</svg>
