<svg width="15" height="15" viewBox="0 0 15 15" fill="none" xmlns="http://www.w3.org/2000/svg">
<g clip-path="url(#clip0_345_3999)">
<path fill-rule="evenodd" clip-rule="evenodd" d="M14.9131 10.6567C14.3524 11.7764 13.5313 12.7462 12.5185 13.4851C11.5056 14.224 10.3303 14.7107 9.09053 14.9045C7.85077 15.0983 6.58253 14.9936 5.39157 14.5992C4.20061 14.2048 3.12147 13.5321 2.24415 12.6372C1.36683 11.7423 0.71676 10.6511 0.348165 9.45467C-0.0204302 8.25826 -0.0968669 6.99128 0.12523 5.75942C0.347327 4.52756 0.861519 3.36652 1.62492 2.37313C2.38832 1.37975 3.3788 0.582825 4.51375 0.0488239C4.87357 -0.118412 5.23829 0.159908 5.06082 0.594478C4.31657 1.89236 4.01706 3.39695 4.20774 4.87997C4.39842 6.36299 5.06888 7.74351 6.11741 8.81209C7.16593 9.88066 8.53529 10.579 10.0177 10.8011C11.5002 11.0231 13.0148 10.7569 14.3318 10.0427L14.3918 10.0098C14.4707 9.96805 14.5609 9.95267 14.6492 9.96589C14.7375 9.97911 14.8192 10.0202 14.8823 10.0832C14.9455 10.1462 14.9867 10.2277 15 10.3158C15.0132 10.4038 14.9978 10.4938 14.956 10.5725L14.9131 10.6567ZM11.3161 9.11499H11.2598C11.2482 8.60777 11.0406 8.12465 10.6802 7.76659C10.3198 7.40853 9.83466 7.20323 9.32608 7.1936V7.13012C9.57803 7.13082 9.82746 7.08006 10.059 6.98097C10.2905 6.88188 10.4993 6.73656 10.6724 6.55395C10.8548 6.38082 11.0001 6.17253 11.0994 5.94171C11.1987 5.71089 11.25 5.46235 11.25 5.21118H11.3125C11.312 5.46243 11.3631 5.71112 11.4624 5.94201C11.5617 6.1729 11.7073 6.38113 11.8901 6.55395C12.0634 6.73633 12.2722 6.8815 12.5037 6.98057C12.7352 7.07965 12.9845 7.13053 13.2364 7.13012V7.19238C12.7302 7.20602 12.2486 7.41318 11.8911 7.77102C11.5337 8.12887 11.3279 8.61002 11.3161 9.11499ZM12.551 3.42773H12.518C12.5186 3.295 12.4918 3.16356 12.4394 3.04156C12.387 2.91957 12.31 2.80961 12.2132 2.7185C12.1222 2.62228 12.0123 2.54567 11.8905 2.49339C11.7686 2.44112 11.6373 2.41428 11.5046 2.41455V2.38159C11.6374 2.38154 11.7689 2.35432 11.8908 2.30162C12.0126 2.24892 12.1224 2.17186 12.2132 2.07519C12.3095 1.98396 12.3862 1.87415 12.4386 1.75243C12.491 1.63072 12.518 1.49964 12.518 1.36718H12.551C12.5504 1.49929 12.5766 1.63015 12.6282 1.75185C12.6797 1.87354 12.7555 1.98354 12.8509 2.07519C12.9425 2.17137 13.0528 2.24793 13.1751 2.30019C13.2973 2.35245 13.429 2.37931 13.562 2.37915V2.41211C13.4288 2.41225 13.297 2.4395 13.1748 2.49219C13.0525 2.54487 12.9423 2.62188 12.8509 2.7185C12.7541 2.80961 12.6771 2.91957 12.6247 3.04156C12.5723 3.16356 12.5455 3.295 12.5461 3.42773H12.551ZM7.47189 4.40429H7.42171C7.42257 4.20281 7.38196 4.00329 7.30238 3.81809C7.2228 3.6329 7.10596 3.46597 6.95908 3.32763C6.81961 3.18098 6.65135 3.06454 6.46479 2.98557C6.27823 2.9066 6.07737 2.8668 5.87471 2.86865V2.8186C6.07671 2.81939 6.27673 2.77885 6.4624 2.69948C6.64807 2.62011 6.81544 2.50361 6.95418 2.35717C7.10089 2.21871 7.21762 2.05175 7.29718 1.86658C7.37675 1.68142 7.41746 1.48197 7.41681 1.28051H7.46699C7.46612 1.48189 7.50661 1.68131 7.58596 1.86648C7.66532 2.05165 7.78186 2.21865 7.9284 2.35717C8.06737 2.50365 8.23496 2.62016 8.42083 2.69952C8.6067 2.77888 8.80691 2.81941 9.0091 2.8186V2.86865C8.80691 2.86784 8.6067 2.90836 8.42083 2.98773C8.23496 3.06709 8.06737 3.1836 7.9284 3.33007C7.78186 3.4686 7.66532 3.6356 7.58596 3.82077C7.50661 4.00594 7.46612 4.20536 7.46699 4.40673L7.47189 4.40429Z" fill="#6677A4"/>
</g>
<defs>
<clipPath id="clip0_345_3999">
<rect width="15" height="15" fill="white"/>
</clipPath>
</defs>
</svg>
