<svg width="20" height="20" viewBox="0 0 20 20" fill="none" xmlns="http://www.w3.org/2000/svg">
<g clip-path="url(#clip0_394_3490)">
<path d="M7.81889 8.77603L6.96289 12.299L10.4869 11.444L17.7419 4.18803C17.9171 4.01285 18.056 3.80487 18.1508 3.57598C18.2457 3.3471 18.2945 3.10178 18.2945 2.85403C18.2945 2.60628 18.2457 2.36096 18.1508 2.13207C18.056 1.90319 17.9171 1.69521 17.7419 1.52003C17.5667 1.34485 17.3587 1.20588 17.1298 1.11107C16.901 1.01627 16.6556 0.967468 16.4079 0.967468C15.9075 0.967468 15.4277 1.16623 15.0739 1.52003L7.81889 8.77603Z" stroke="white" stroke-width="2" stroke-linecap="round" stroke-linejoin="round"/>
<path d="M14.9434 3.24103L16.3964 4.69403" stroke="white" stroke-width="2" stroke-linecap="round" stroke-linejoin="round"/>
<path d="M16.8818 9.06701V16.452C16.8815 16.9651 16.6775 17.4571 16.3147 17.82C15.9519 18.1828 15.4599 18.3867 14.9467 18.387H2.90375C2.39056 18.387 1.89838 18.1831 1.5355 17.8203C1.17262 17.4574 0.96875 16.9652 0.96875 16.452V3.92601C0.96875 3.54091 1.12173 3.17159 1.39403 2.89929C1.66633 2.62698 2.03566 2.47401 2.42075 2.47401L9.90475 2.41901" stroke="white" stroke-width="2" stroke-linecap="round" stroke-linejoin="round"/>
</g>
<defs>
<clipPath id="clip0_394_3490">
<rect width="19.262" height="19.355" fill="white"/>
</clipPath>
</defs>
</svg>
