<svg width="75" height="57" viewBox="0 0 75 57" fill="none" xmlns="http://www.w3.org/2000/svg">
<path d="M63.926 0H10.526C9.13232 0.00807003 7.7547 0.298639 6.47645 0.854148C5.19819 1.40966 4.04584 2.21857 3.08904 3.232C1.09995 5.33577 -0.00576259 8.12278 3.65816e-05 11.018V45.7C-0.00732863 48.5963 1.09772 51.3849 3.08704 53.49C4.04412 54.5039 5.19694 55.3131 6.47576 55.8686C7.75457 56.4241 9.13279 56.7145 10.527 56.722H63.927C65.3209 56.714 66.6986 56.4233 67.9769 55.8676C69.2551 55.3119 70.4074 54.5027 71.364 53.489C73.352 51.3837 74.456 48.5956 74.448 45.7V11.018C74.4544 8.12354 73.3498 5.33699 71.362 3.233C70.4055 2.21946 69.2533 1.4104 67.9752 0.854723C66.6972 0.299041 65.3197 0.00827596 63.926 0V0ZM60.688 15.589L41.594 28.332C40.3024 29.1978 38.7825 29.6601 37.2275 29.6601C35.6726 29.6601 34.1527 29.1978 32.861 28.332L13.768 15.589C13.4996 15.4094 13.2692 15.1787 13.09 14.91C12.9079 14.6368 12.7796 14.3313 12.712 14.01C12.6435 13.6869 12.6364 13.3538 12.691 13.028C12.7452 12.7039 12.8606 12.393 13.031 12.112C13.1988 11.8351 13.4193 11.5939 13.68 11.402C13.9363 11.2118 14.2285 11.0757 14.539 11.002C14.8469 10.9303 15.1662 10.9228 15.477 10.98C15.7898 11.038 16.0876 11.1592 16.352 11.336L35.445 24.083C35.9721 24.4364 36.5924 24.6251 37.227 24.6251C37.8617 24.6251 38.4819 24.4364 39.009 24.083L58.1 11.34C58.3641 11.1706 58.6598 11.0567 58.9692 11.0052C59.2787 10.9536 59.5953 10.9654 59.9 11.04C60.2077 11.1168 60.4972 11.2535 60.752 11.4422C61.0068 11.6309 61.2219 11.8681 61.385 12.14C61.7242 12.7016 61.8402 13.37 61.71 14.013C61.5846 14.6502 61.2186 15.2146 60.688 15.589V15.589Z" fill="#7D94CC"/>
</svg>
