<svg width="12" height="12" viewBox="0 0 12 12" fill="none" xmlns="http://www.w3.org/2000/svg">
<g clip-path="url(#clip0_311_1536)">
<path d="M2.22947 8.13211L8.1322 2.22961C7.8997 1.99734 7.50806 1.6057 7.27556 1.3732C7.17009 1.2675 7.10142 1.16789 7.06392 1.07414C7.01189 0.942655 7.01634 0.824296 7.06603 0.719062C7.11103 0.622265 7.19001 0.547499 7.29267 0.492187C7.40681 0.431015 7.55564 0.391874 7.71501 0.372655L11.3242 0.00749924C11.7165 -0.0391414 12.0205 0.130077 11.9989 0.562734L11.9975 0.581952C11.8372 1.9132 11.7491 3.17086 11.5881 4.50117C11.585 4.52484 11.5785 4.54758 11.5674 4.57055C11.4657 4.7775 11.334 4.89703 11.1753 4.92867C11.0174 4.96125 10.8587 4.90289 10.6993 4.75664L9.79392 3.85148L3.85158 9.79383L4.75673 10.6992C4.90275 10.8586 4.96134 11.0173 4.92876 11.1752C4.89689 11.3341 4.77759 11.4656 4.57064 11.5673C4.54767 11.5784 4.52494 11.5849 4.50126 11.588C3.17095 11.749 1.91306 11.8373 0.582046 11.9974L0.562828 11.9988C0.129703 12.0206 -0.0392814 11.7166 0.00759361 11.3241L0.37275 7.71492C0.391968 7.55555 0.430875 7.40695 0.492516 7.29258C0.547828 7.18992 0.622125 7.11117 0.718922 7.06617C0.824626 7.01625 0.942515 7.01203 1.07423 7.06383C1.16798 7.10133 1.26736 7.17023 1.37306 7.2757L2.22947 8.13211Z" fill="white"/>
</g>
<defs>
<clipPath id="clip0_311_1536">
<rect width="12" height="12" fill="white" transform="translate(12) rotate(90)"/>
</clipPath>
</defs>
</svg>
