<svg width="19" height="23" viewBox="0 0 19 23" fill="none" xmlns="http://www.w3.org/2000/svg">
<g clip-path="url(#clip0_394_3091)">
<path d="M9.20583 21.364C11.5421 20.6647 13.5905 19.2307 15.0472 17.2749C16.5038 15.3191 17.291 12.9457 17.2918 10.507V4.20702L9.20583 1.12402L6.17383 2.28002" stroke="#7D94CC" stroke-width="1.5" stroke-linecap="round" stroke-linejoin="round"/>
<path d="M3.36105 3.354L1.12305 4.208V10.508C1.12362 12.9462 1.9102 15.3192 3.36608 17.2749C4.82196 19.2307 6.86955 20.665 9.20505 21.365" stroke="#7D94CC" stroke-width="1.5" stroke-linecap="round" stroke-linejoin="round"/>
<path d="M7.97577 13.974V13.906C7.96238 13.3224 8.03757 12.7401 8.19877 12.179C8.31982 11.7893 8.53005 11.4332 8.81277 11.139C9.10013 10.8567 9.42083 10.6106 9.76777 10.406C9.98831 10.2711 10.1901 10.1077 10.3678 9.91998C10.5498 9.73133 10.6958 9.51106 10.7988 9.26998C10.9057 9.009 10.9585 8.72899 10.9538 8.44698C10.9624 8.10648 10.8717 7.77083 10.6928 7.48098C10.5213 7.21076 10.2793 6.99256 9.99277 6.84998C9.69103 6.69973 9.35781 6.62362 9.02077 6.62798C8.71043 6.62737 8.40356 6.69318 8.12077 6.82098C7.82862 6.95316 7.57874 7.16359 7.39877 7.42898C7.19028 7.75335 7.07444 8.12854 7.06377 8.51398H5.63477C5.64679 7.92757 5.81976 7.35575 6.13477 6.86098C6.43479 6.40693 6.85319 6.0435 7.34477 5.80998C7.86878 5.56271 8.4424 5.43854 9.02177 5.44698C9.62635 5.43325 10.2248 5.57075 10.7628 5.84698C11.2401 6.09587 11.6379 6.47391 11.9108 6.93798C12.1863 7.4183 12.3266 7.96431 12.3168 8.51798C12.3221 8.90269 12.2577 9.28519 12.1268 9.64698C12.0025 9.97817 11.8177 10.2834 11.5818 10.547C11.3324 10.8207 11.0444 11.0566 10.7268 11.247C10.4297 11.4257 10.1602 11.6467 9.92677 11.903C9.72254 12.1389 9.57328 12.4173 9.48977 12.718C9.38961 13.1019 9.33986 13.4972 9.34177 13.894V13.962L7.97577 13.974ZM8.69877 17.338C8.56431 17.34 8.43087 17.3144 8.30669 17.2628C8.18251 17.2112 8.07023 17.1347 7.97677 17.038C7.88008 16.9445 7.80358 16.8322 7.75198 16.7081C7.70038 16.5839 7.67478 16.4504 7.67677 16.316C7.67478 16.1815 7.70038 16.0481 7.75198 15.9239C7.80358 15.7997 7.88008 15.6874 7.97677 15.594C8.07023 15.4973 8.18251 15.4208 8.30669 15.3692C8.43087 15.3176 8.56431 15.292 8.69877 15.294C8.83322 15.292 8.96666 15.3176 9.09084 15.3692C9.21502 15.4208 9.32731 15.4973 9.42077 15.594C9.51745 15.6874 9.59395 15.7997 9.64555 15.9239C9.69715 16.0481 9.72275 16.1815 9.72077 16.316C9.72231 16.4959 9.67421 16.6727 9.58177 16.827C9.49153 16.9797 9.36472 17.1075 9.21277 17.199C9.05767 17.2922 8.87968 17.3403 8.69877 17.338Z" fill="#7D94CC"/>
</g>
<defs>
<clipPath id="clip0_394_3091">
<rect width="18.412" height="22.488" fill="white"/>
</clipPath>
</defs>
</svg>
