<svg width="16" height="16" viewBox="0 0 16 16" fill="none" xmlns="http://www.w3.org/2000/svg">
<path d="M12.825 2H3.175C2.59815 2 2.04493 2.22915 1.63704 2.63704C1.22915 3.04493 1 3.59815 1 4.175V11.825C1 12.1106 1.05626 12.3935 1.16556 12.6573C1.27487 12.9212 1.43508 13.161 1.63704 13.363C1.83901 13.5649 2.07878 13.7251 2.34266 13.8344C2.60655 13.9437 2.88937 14 3.175 14H12.825C13.1106 14 13.3935 13.9437 13.6573 13.8344C13.9212 13.7251 14.161 13.5649 14.363 13.363C14.5649 13.161 14.7251 12.9212 14.8344 12.6573C14.9437 12.3935 15 12.1106 15 11.825V4.175C15 3.59815 14.7708 3.04493 14.363 2.63704C13.9551 2.22915 13.4018 2 12.825 2ZM14 11.825C13.9987 12.1362 13.8745 12.4343 13.6544 12.6544C13.4343 12.8745 13.1362 12.9987 12.825 13H3.175C2.86378 12.9987 2.56567 12.8745 2.3456 12.6544C2.12553 12.4343 2.00132 12.1362 2 11.825V4.175C2.00132 3.86378 2.12553 3.56567 2.3456 3.3456C2.56567 3.12553 2.86378 3.00132 3.175 3H12.825C13.1362 3.00132 13.4343 3.12553 13.6544 3.3456C13.8745 3.56567 13.9987 3.86378 14 4.175V11.825Z" fill="#7E93CB"/>
<path d="M10.7653 6.425C10.6819 6.23234 10.5454 6.06743 10.3717 5.94956C10.1979 5.8317 9.99423 5.76576 9.78439 5.75946C9.57455 5.75317 9.36726 5.80678 9.18678 5.91402C9.00631 6.02126 8.86012 6.17769 8.76532 6.365L6.58032 10.525L6.13032 9.86C6.03745 9.7206 5.91383 9.60437 5.76899 9.52024C5.62414 9.43612 5.46192 9.38634 5.29482 9.37475C5.12772 9.36316 4.96018 9.39006 4.80511 9.45338C4.65003 9.5167 4.51155 9.61476 4.40032 9.74L3.13032 11.165C3.08167 11.2127 3.04329 11.2699 3.01754 11.333C2.99179 11.3961 2.97921 11.4638 2.98057 11.5319C2.98193 11.6001 2.99721 11.6672 3.02547 11.7292C3.05372 11.7912 3.09436 11.8468 3.14488 11.8926C3.1954 11.9383 3.25474 11.9733 3.31925 11.9952C3.38377 12.0172 3.45209 12.0258 3.52003 12.0204C3.58797 12.015 3.65409 11.9957 3.71432 11.9639C3.77456 11.932 3.82765 11.8881 3.87032 11.835L5.15532 10.405C5.1656 10.393 5.17887 10.3839 5.1938 10.3786C5.20872 10.3733 5.22477 10.3721 5.24032 10.375C5.25562 10.3755 5.27053 10.3799 5.28366 10.3878C5.29678 10.3957 5.30768 10.4067 5.31532 10.42L6.23532 11.78C6.28348 11.8515 6.3493 11.9093 6.42639 11.9479C6.50349 11.9864 6.58924 12.0044 6.67532 12C6.76285 11.9957 6.84772 11.9686 6.92144 11.9212C6.99515 11.8738 7.05512 11.8079 7.09532 11.73L9.67032 6.83C9.67763 6.81253 9.69026 6.79781 9.70642 6.78794C9.72258 6.77806 9.74144 6.77353 9.76032 6.775C9.77996 6.773 9.79968 6.77789 9.8161 6.78884C9.83252 6.79979 9.84462 6.81611 9.85032 6.835L12.0453 11.705C12.0848 11.7927 12.1487 11.8672 12.2294 11.9195C12.3101 11.9719 12.4041 11.9998 12.5003 12C12.5711 11.9997 12.6409 11.9843 12.7053 11.955C12.8258 11.9004 12.9198 11.8003 12.9666 11.6766C13.0135 11.5529 13.0094 11.4157 12.9553 11.295L10.7653 6.425ZM5.00032 8C5.39588 8 5.78256 7.8827 6.11146 7.66294C6.44036 7.44318 6.69671 7.13082 6.84808 6.76537C6.99946 6.39992 7.03906 5.99778 6.96189 5.60982C6.88472 5.22186 6.69424 4.86549 6.41454 4.58579C6.13483 4.30608 5.77847 4.1156 5.3905 4.03843C5.00254 3.96126 4.60041 4.00087 4.23496 4.15224C3.8695 4.30362 3.55715 4.55996 3.33738 4.88886C3.11762 5.21776 3.00032 5.60444 3.00032 6C3.00032 6.53043 3.21104 7.03914 3.58611 7.41421C3.96118 7.78929 4.46989 8 5.00032 8ZM5.00032 5C5.1981 5 5.39144 5.05865 5.55589 5.16853C5.72034 5.27841 5.84851 5.43459 5.9242 5.61732C5.99989 5.80004 6.01969 6.00111 5.98111 6.19509C5.94252 6.38907 5.84728 6.56726 5.70743 6.70711C5.56758 6.84696 5.38939 6.9422 5.19541 6.98079C5.00143 7.01937 4.80037 6.99957 4.61764 6.92388C4.43491 6.84819 4.27873 6.72002 4.16885 6.55557C4.05897 6.39112 4.00032 6.19778 4.00032 6C4.00032 5.73478 4.10568 5.48043 4.29322 5.29289C4.48075 5.10536 4.73511 5 5.00032 5Z" fill="#7E93CB"/>
</svg>
