<svg width="32" height="32" viewBox="0 0 32 32" fill="none" xmlns="http://www.w3.org/2000/svg">
<path d="M4.33993 6.46256C1.95909 9.38213 0.777482 13.0978 1.03465 16.8563C1.29181 20.6148 2.96851 24.1348 5.72483 26.7029C8.48115 29.271 12.1109 30.6949 15.8781 30.686C19.6454 30.6771 23.2683 29.236 26.0125 26.655C28.7566 24.0739 30.4166 20.5459 30.656 16.7862C30.8954 13.0266 29.6963 9.31656 27.3016 6.40827C24.907 3.49999 21.4961 1.61106 17.7604 1.12441C14.0247 0.637761 10.2437 1.58981 7.18393 3.78756" stroke="white" stroke-width="2" stroke-linecap="round" stroke-linejoin="round"/>
<path d="M15.6109 1.03552C11.9528 5.10697 9.91415 10.3782 9.88086 15.8515C9.88086 21.3035 12.5279 28.1395 15.6109 30.7025" stroke="white" stroke-width="2" stroke-linecap="round" stroke-linejoin="round"/>
<path d="M16.083 1.03552C19.7411 5.10697 21.7797 10.3782 21.813 15.8515C21.813 21.3035 19.166 28.1395 16.083 30.7025" stroke="white" stroke-width="2" stroke-linecap="round" stroke-linejoin="round"/>
<path d="M2.53809 15.8516H29.1521" stroke="white" stroke-width="2" stroke-linecap="round" stroke-linejoin="round"/>
</svg>
