<svg xmlns="http://www.w3.org/2000/svg" xmlns:xlink="http://www.w3.org/1999/xlink" width="25.618" height="25.618" viewBox="0 0 25.618 25.618">
  <defs>
    <clipPath id="clip-path">
      <path id="Path_310" data-name="Path 310" d="M0,13.618H25.618V-12H0Z" transform="translate(0 12)" fill="#99aee2"/>
    </clipPath>
  </defs>
  <g id="Group_531" data-name="Group 531" transform="translate(0 12)">
    <g id="Group_515" data-name="Group 515" transform="translate(0 -12)" clip-path="url(#clip-path)">
      <g id="Group_514" data-name="Group 514">
        <path id="Path_309" data-name="Path 309" d="M6.809,13.618A12.809,12.809,0,1,0-6,.809,12.808,12.808,0,0,0,6.809,13.618m-2-8.806h1.2V1.61h-1.2a1.2,1.2,0,0,1-1.2-1.2,1.2,1.2,0,0,1,1.2-1.2h2.4A1.2,1.2,0,0,1,8.41.41v4.4h.4a1.2,1.2,0,1,1,0,2.4h-4a1.2,1.2,0,1,1,0-2.4m2-7.205a1.6,1.6,0,0,1-1.6-1.6,1.6,1.6,0,0,1,1.6-1.6,1.6,1.6,0,0,1,1.6,1.6,1.6,1.6,0,0,1-1.6,1.6" transform="translate(6 12)" fill="#99aee2"/>
      </g>
    </g>
  </g>
</svg>
