<svg width="24" height="24" viewBox="0 0 24 24" fill="none" xmlns="http://www.w3.org/2000/svg">
<g clip-path="url(#clip0_394_3150)">
<path d="M12 2.162C15.2 2.162 15.584 2.174 16.849 2.232C17.6099 2.24093 18.3635 2.38064 19.077 2.645C19.5985 2.83802 20.0701 3.14557 20.457 3.545C20.8564 3.93191 21.164 4.40348 21.357 4.925C21.6212 5.63854 21.7609 6.39216 21.77 7.153C21.828 8.419 21.84 8.798 21.84 12.002C21.84 15.206 21.828 15.586 21.77 16.851C21.7609 17.6118 21.6212 18.3655 21.357 19.079C21.1574 19.5964 20.8517 20.0664 20.4595 20.4585C20.0674 20.8507 19.5974 21.1564 19.08 21.356C18.3665 21.6204 17.6129 21.7601 16.852 21.769C15.587 21.827 15.207 21.839 12.003 21.839C8.799 21.839 8.419 21.827 7.154 21.769C6.39315 21.7601 5.6395 21.6204 4.926 21.356C4.40448 21.163 3.93291 20.8554 3.546 20.456C3.14657 20.0691 2.83902 19.5975 2.646 19.076C2.38164 18.3625 2.24193 17.6089 2.233 16.848C2.175 15.582 2.163 15.203 2.163 11.999C2.163 8.795 2.175 8.415 2.233 7.15C2.24193 6.38915 2.38164 5.6355 2.646 4.922C2.83902 4.40048 3.14657 3.92891 3.546 3.542C3.93291 3.14257 4.40448 2.83502 4.926 2.642C5.6395 2.37764 6.39315 2.23793 7.154 2.229C8.416 2.174 8.8 2.162 12 2.162ZM12 0C8.741 0 8.332 0.014 7.052 0.072C6.05678 0.0921346 5.07217 0.280807 4.14 0.63C3.33909 0.931177 2.61354 1.4035 2.014 2.014C1.4035 2.61354 0.931177 3.33909 0.63 4.14C0.280807 5.07217 0.0921346 6.05678 0.072 7.052C0.014 8.332 0 8.741 0 12C0 15.259 0.014 15.668 0.072 16.948C0.0921346 17.9432 0.280807 18.9278 0.63 19.86C0.931177 20.6609 1.4035 21.3865 2.014 21.986C2.61363 22.5964 3.33915 23.0687 4.14 23.37C5.07248 23.7193 6.05744 23.908 7.053 23.928C8.332 23.986 8.741 24 12 24C15.259 24 15.668 23.986 16.948 23.928C17.9436 23.908 18.9285 23.7193 19.861 23.37C20.6583 23.0617 21.3823 22.5902 21.9868 21.9858C22.5912 21.3813 23.0627 20.6573 23.371 19.86C23.7203 18.9275 23.909 17.9426 23.929 16.947C23.986 15.668 24 15.259 24 12C24 8.741 23.986 8.332 23.928 7.052C23.9079 6.05678 23.7192 5.07217 23.37 4.14C23.0687 3.33915 22.5964 2.61363 21.986 2.014C21.3865 1.4035 20.6609 0.931177 19.86 0.63C18.9278 0.280807 17.9432 0.0921346 16.948 0.072C15.668 0.014 15.259 0 12 0Z" fill="white"/>
<path d="M11.9999 5.83801C10.7812 5.83801 9.5898 6.19941 8.57647 6.8765C7.56313 7.55359 6.77333 8.51596 6.30695 9.64192C5.84056 10.7679 5.71853 12.0068 5.95629 13.2022C6.19406 14.3975 6.78093 15.4954 7.6427 16.3572C8.50447 17.219 9.60244 17.8058 10.7977 18.0436C11.9931 18.2814 13.232 18.1593 14.358 17.693C15.4839 17.2266 16.4463 16.4368 17.1234 15.4234C17.8005 14.4101 18.1619 13.2187 18.1619 12C18.1619 10.3657 17.5127 8.79842 16.3571 7.64282C15.2015 6.48722 13.6342 5.83801 11.9999 5.83801ZM11.9999 16C11.2088 16 10.4354 15.7654 9.77761 15.3259C9.11982 14.8864 8.60713 14.2617 8.30438 13.5307C8.00163 12.7998 7.92241 11.9956 8.07675 11.2197C8.23109 10.4437 8.61206 9.731 9.17147 9.17159C9.73088 8.61217 10.4436 8.23121 11.2195 8.07687C11.9955 7.92253 12.7997 8.00174 13.5306 8.30449C14.2615 8.60725 14.8862 9.11993 15.3258 9.77773C15.7653 10.4355 15.9999 11.2089 15.9999 12C15.9999 13.0609 15.5785 14.0783 14.8283 14.8284C14.0782 15.5786 13.0608 16 11.9999 16Z" fill="white"/>
<path d="M19.8468 5.59405C19.8468 5.87886 19.7623 6.15727 19.6041 6.39407C19.4459 6.63088 19.221 6.81545 18.9579 6.92444C18.6947 7.03343 18.4052 7.06195 18.1259 7.00638C17.8465 6.95082 17.59 6.81367 17.3886 6.61229C17.1872 6.4109 17.05 6.15431 16.9945 5.87498C16.9389 5.59565 16.9674 5.30611 17.0764 5.04299C17.1854 4.77986 17.37 4.55497 17.6068 4.39674C17.8436 4.23851 18.122 4.15405 18.4068 4.15405C18.7887 4.15405 19.155 4.30577 19.425 4.57582C19.6951 4.84587 19.8468 5.21214 19.8468 5.59405Z" fill="white"/>
</g>
<defs>
<clipPath id="clip0_394_3150">
<rect width="24" height="24" fill="white"/>
</clipPath>
</defs>
</svg>
