<svg width="27" height="27" viewBox="0 0 27 27" fill="none" xmlns="http://www.w3.org/2000/svg">
<g clip-path="url(#clip0_858_4221)">
<path fill-rule="evenodd" clip-rule="evenodd" d="M11.2485 15.7433L11.4112 24.7366L13.5646 26.8698L15.6539 24.7606L14.0351 23.1571L15.7663 21.4095L13.9944 19.6543L15.6511 17.9818L14.5332 15.9165C15.8165 15.6621 17.0468 15.03 18.044 14.0234C20.6557 11.3868 20.6836 7.17786 18.1057 4.62424C15.5278 2.07063 11.3193 2.13835 8.70759 4.77487C6.09579 7.41151 6.06832 11.6203 8.6461 14.1738C9.40075 14.9213 10.2952 15.4437 11.2485 15.7433ZM12.56 7.23137C12.0939 7.70186 12.1025 8.46707 12.5798 8.93991C13.0571 9.41275 13.8224 9.41405 14.2884 8.94356C14.7548 8.47275 14.746 7.70787 14.2686 7.23503C13.7914 6.76208 13.0264 6.76055 12.56 7.23137Z" fill="#7D94CC"/>
</g>
<defs>
<clipPath id="clip0_858_4221">
<rect width="19" height="19" fill="white" transform="matrix(-0.703754 0.710444 0.710444 0.703754 13.4375 0)"/>
</clipPath>
</defs>
</svg>
