<svg xmlns="http://www.w3.org/2000/svg" width="201.417" height="41.987" viewBox="0 0 201.417 41.987">
    <path id="Path_4" data-name="Path 4" d="M386.235,97.362h-5.968a.8.8,0,0,0-.8.534l-4.187,12.768L370.883,97.9a.613.613,0,0,0-.445-.445.705.705,0,0,0-.356-.089H364.41a1.038,1.038,0,0,0-.356.089.669.669,0,0,0-.445.445L359.3,110.665,355.026,97.9a.829.829,0,0,0-.8-.534h-5.939c-.5,0-.713.267-.535.772l7.6,20.726a.829.829,0,0,0,.8.534h5.79a.8.8,0,0,0,.8-.534l4.484-11.848,4.543,11.848a.829.829,0,0,0,.8.534h5.761a.8.8,0,0,0,.8-.534l7.631-20.726c.178-.5-.03-.772-.535-.772Zm22.656,10.719c0-6.147-4.127-11.224-10.571-11.224A11.217,11.217,0,0,0,387.1,108.408c0,6.473,4.751,11.551,11.818,11.551a11.7,11.7,0,0,0,8.136-3.355c.356-.356.416-.683.089-.98l-2.613-2.554c-.267-.327-.535-.356-.98-.089a6.966,6.966,0,0,1-3.949,1.128c-2.643,0-4.484-.98-5.107-3.058h12.679c1.455-.059,1.722-1.039,1.722-2.969Zm-10.482-5.018a3.712,3.712,0,0,1,3.86,3.326h-7.958a3.955,3.955,0,0,1,4.1-3.326ZM424.955,96.8a7.991,7.991,0,0,0-6.028,2.88l-.148-1.663c-.059-.416-.267-.683-.683-.683H412.6a.639.639,0,0,0-.683.683v20.667a.441.441,0,0,0,.059.267V127.2a.639.639,0,0,0,.683.683h6.058a.639.639,0,0,0,.683-.683v-9.443a7.962,7.962,0,0,0,5.523,2.2c6.058,0,10.571-5.167,10.571-11.581.03-6.414-4.454-11.581-10.541-11.581Zm-.921,16.421a4.606,4.606,0,0,1-4.395-4.84,4.545,4.545,0,0,1,4.395-4.751,4.435,4.435,0,0,1,4.365,4.751,4.532,4.532,0,0,1-4.365,4.84Zm35.514-5.137c0-6.147-4.127-11.224-10.571-11.224a11.217,11.217,0,0,0-11.224,11.551c0,6.473,4.751,11.551,11.818,11.551a11.7,11.7,0,0,0,8.136-3.355c.356-.356.416-.683.089-.98l-2.613-2.554c-.267-.327-.534-.356-.98-.089a6.966,6.966,0,0,1-3.949,1.128c-2.643,0-4.484-.98-5.107-3.058h12.709c1.425-.059,1.693-1.039,1.693-2.969ZM449.1,103.063a3.712,3.712,0,0,1,3.86,3.326H445a3.936,3.936,0,0,1,4.1-3.326Zm27.675-6.206a7.486,7.486,0,0,0-6.651,3.86l-.178-2.7c-.059-.416-.267-.683-.683-.683h-5.879a.639.639,0,0,0-.683.683v20.667a.639.639,0,0,0,.683.683h6.058a.639.639,0,0,0,.683-.683V107.547c0-1.069,1.039-3.771,3.771-3.771,1.514,0,3.5.772,3.5,4.276v10.66a.639.639,0,0,0,.683.683h6.058a.639.639,0,0,0,.683-.683V106.478c0-5.909-3.652-9.621-8.047-9.621Zm34.089-10.3H504.8a.639.639,0,0,0-.683.683V99.173a7.956,7.956,0,0,0-5.582-2.376c-6.058,0-10.571,5.167-10.571,11.581s4.484,11.581,10.571,11.581a8.105,8.105,0,0,0,6.028-2.7l.148,1.4c.059.416.267.683.683.683h5.493a.639.639,0,0,0,.683-.683V87.236a.679.679,0,0,0-.713-.683Zm-11.373,26.665c-2.524,0-4.365-2.108-4.365-4.84a4.435,4.435,0,0,1,4.365-4.751,4.814,4.814,0,0,1,0,9.591Zm19.568-19.479a3.92,3.92,0,1,0-3.92-3.92,3.916,3.916,0,0,0,3.92,3.92Zm-3.682,4.276v20.667a.639.639,0,0,0,.683.683h6.058a.639.639,0,0,0,.683-.683V98.015a.639.639,0,0,0-.683-.683h-6.058a.672.672,0,0,0-.683.683Zm22.181,21.944A11.551,11.551,0,1,0,526,108.408a11.545,11.545,0,0,0,11.551,11.551Zm0-6.919a4.654,4.654,0,1,1,4.395-4.632,4.425,4.425,0,0,1-4.395,4.632Z" transform="translate(-347.688 -85.9)" fill="#f7f8fd"/>
</svg>
