<svg width="24" height="24" viewBox="0 0 24 24" fill="none" xmlns="http://www.w3.org/2000/svg">
<g clip-path="url(#clip0_345_3996)">
<path d="M5.857 2.581C5.644 2.214 5.77 1.743 6.137 1.53C6.504 1.317 6.975 1.442 7.188 1.81L8.176 3.52C8.389 3.887 8.263 4.358 7.896 4.571C7.529 4.784 7.058 4.659 6.845 4.291L5.857 2.581ZM12 5.117C13.901 5.117 15.621 5.887 16.867 7.133C18.112 8.379 18.883 10.1 18.883 12C18.883 13.901 18.113 15.621 16.867 16.867C15.621 18.113 13.901 18.883 12 18.883C10.099 18.883 8.379 18.113 7.133 16.867C5.888 15.621 5.117 13.901 5.117 12C5.117 10.099 5.887 8.379 7.133 7.133C8.379 5.888 10.1 5.117 12 5.117ZM15.827 8.173C14.848 7.194 13.495 6.588 12 6.588C10.505 6.588 9.152 7.194 8.173 8.173C7.194 9.152 6.588 10.505 6.588 12C6.588 13.495 7.194 14.848 8.173 15.827C9.152 16.806 10.505 17.412 12 17.412C13.495 17.412 14.848 16.806 15.827 15.827C16.806 14.848 17.412 13.495 17.412 12C17.412 10.505 16.806 9.152 15.827 8.173ZM11.388 0.771C11.388 0.345 11.733 0 12.159 0C12.585 0 12.93 0.345 12.93 0.771V2.746C12.93 3.172 12.585 3.517 12.159 3.517C11.733 3.517 11.388 3.172 11.388 2.746V0.771ZM17.087 1.972C17.298 1.605 17.767 1.478 18.135 1.689C18.502 1.9 18.629 2.369 18.418 2.737L17.43 4.447C17.219 4.814 16.75 4.941 16.382 4.73C16.015 4.519 15.888 4.05 16.099 3.682L17.087 1.972ZM21.419 5.857C21.786 5.644 22.257 5.77 22.47 6.137C22.683 6.504 22.558 6.975 22.19 7.188L20.48 8.176C20.113 8.389 19.642 8.263 19.429 7.896C19.216 7.529 19.341 7.058 19.709 6.845L21.419 5.857ZM23.229 11.388C23.655 11.388 24 11.733 24 12.159C24 12.585 23.655 12.93 23.229 12.93H21.254C20.828 12.93 20.483 12.585 20.483 12.159C20.483 11.733 20.828 11.388 21.254 11.388H23.229ZM22.028 17.087C22.395 17.298 22.522 17.767 22.311 18.135C22.1 18.502 21.631 18.629 21.263 18.418L19.553 17.43C19.186 17.219 19.059 16.75 19.27 16.382C19.481 16.015 19.95 15.888 20.318 16.099L22.028 17.087ZM18.143 21.419C18.356 21.786 18.23 22.257 17.863 22.47C17.496 22.683 17.025 22.558 16.812 22.19L15.824 20.48C15.611 20.113 15.737 19.642 16.104 19.429C16.471 19.216 16.942 19.341 17.155 19.709L18.143 21.419ZM12.612 23.229C12.612 23.655 12.267 24 11.841 24C11.415 24 11.07 23.655 11.07 23.229V21.254C11.07 20.828 11.415 20.483 11.841 20.483C12.267 20.483 12.612 20.828 12.612 21.254V23.229ZM6.913 22.028C6.702 22.395 6.233 22.522 5.865 22.311C5.498 22.1 5.371 21.631 5.582 21.263L6.57 19.553C6.781 19.186 7.25 19.059 7.618 19.27C7.985 19.481 8.112 19.95 7.901 20.318L6.913 22.028ZM2.581 18.143C2.214 18.356 1.743 18.23 1.53 17.863C1.317 17.496 1.442 17.025 1.81 16.812L3.52 15.824C3.887 15.611 4.358 15.737 4.571 16.104C4.784 16.471 4.659 16.942 4.291 17.155L2.581 18.143ZM0.771 12.612C0.345 12.612 0 12.267 0 11.841C0 11.415 0.345 11.07 0.771 11.07H2.746C3.172 11.07 3.517 11.415 3.517 11.841C3.517 12.267 3.172 12.612 2.746 12.612H0.771ZM1.972 6.913C1.605 6.702 1.478 6.233 1.689 5.865C1.9 5.498 2.369 5.371 2.737 5.582L4.447 6.57C4.814 6.781 4.941 7.25 4.73 7.618C4.519 7.985 4.05 8.112 3.682 7.901L1.972 6.913Z" fill="white"/>
</g>
<defs>
<clipPath id="clip0_345_3996">
<rect width="24" height="24" fill="white"/>
</clipPath>
</defs>
</svg>
