<svg width="11" height="16" viewBox="0 0 11 16" fill="none" xmlns="http://www.w3.org/2000/svg">
<path fill-rule="evenodd" clip-rule="evenodd" d="M4.18757 14.5613C4.46367 15.0829 4.86249 15.359 5.29198 15.359C5.73682 15.359 6.12029 15.0829 6.41174 14.5613C9.63295 8.64046 9.81701 8.27232 9.81701 8.27232C10.3385 7.44401 10.6146 6.47764 10.6146 5.4806C10.6146 2.55084 8.23709 0.173279 5.30732 0.173279C2.37756 0.173279 0 2.55084 0 5.4806C0 6.44696 0.260765 7.39799 0.751615 8.18028C0.751615 8.21096 0.782293 8.27232 4.18757 14.5613ZM0.613563 5.4806C0.613563 2.8883 2.71502 0.786842 5.30732 0.786842C7.88429 0.786842 9.98575 2.8883 10.0011 5.49594C10.0011 6.37027 9.75566 7.22926 9.28015 7.99621C9.25148 8.04781 8.92924 8.64369 8.47682 9.48031C7.7188 10.8821 6.59531 12.9596 5.87487 14.2852C5.53741 14.8835 5.0619 14.8835 4.73978 14.2852C4.50059 13.8427 4.15986 13.2137 3.78491 12.5216C2.71717 10.5505 1.37194 8.0671 1.30382 7.91952C0.84365 7.18324 0.613563 6.33959 0.613563 5.4806ZM2.37711 5.74133C2.37711 7.35194 3.68093 8.6711 5.30687 8.6711C6.91747 8.6711 8.23664 7.3366 8.23664 5.72599C8.23664 4.11539 6.93281 2.79623 5.30687 2.79623C3.68093 2.79623 2.37711 4.13073 2.37711 5.74133ZM2.99067 5.72599C2.99067 4.45285 4.03373 3.40979 5.30687 3.40979C6.58001 3.40979 7.62307 4.45285 7.62307 5.72599C7.62307 6.99914 6.58001 8.0422 5.30687 8.0422C4.03373 8.0422 2.99067 6.99914 2.99067 5.72599Z" fill="#7E93CB"/>
</svg>
