<svg width="30" height="26" viewBox="0 0 30 26" fill="none" xmlns="http://www.w3.org/2000/svg">
<path d="M6.86095 1H4.11071C3.28577 1.00024 2.49469 1.32805 1.91137 1.91137C1.32805 2.49469 1.00024 3.28577 1 4.11071V16.9616C1.00024 17.7865 1.32805 18.5776 1.91137 19.1609C2.49469 19.7442 3.28577 20.072 4.11071 20.0723H8.99065C9.39917 20.0722 9.80369 20.1527 10.1811 20.309C10.5585 20.4653 10.9015 20.6945 11.1903 20.9833L14.9996 24.7926L18.8088 20.9833C19.0976 20.6945 19.4406 20.4653 19.818 20.309C20.1954 20.1527 20.5999 20.0722 21.0085 20.0723H25.8884C26.7135 20.0723 27.5048 19.7446 28.0883 19.1612C28.6718 18.5779 28.9998 17.7867 29 16.9616V4.11071C28.9998 3.28562 28.6718 2.4944 28.0883 1.91105C27.5048 1.32771 26.7135 1 25.8884 1H10.6594" stroke="white" stroke-width="2" stroke-linecap="round" stroke-linejoin="round"/>
<path d="M21.4269 11.575C21.6745 11.575 21.8752 11.3742 21.8752 11.1266C21.8752 10.879 21.6745 10.6783 21.4269 10.6783C21.1793 10.6783 20.9785 10.879 20.9785 11.1266C20.9785 11.3742 21.1793 11.575 21.4269 11.575Z" stroke="white" stroke-width="2" stroke-linecap="round" stroke-linejoin="round"/>
<path d="M9.3468 11.575C9.59442 11.575 9.79515 11.3742 9.79515 11.1266C9.79515 10.879 9.59442 10.6783 9.3468 10.6783C9.09917 10.6783 8.89844 10.879 8.89844 11.1266C8.89844 11.3742 9.09917 11.575 9.3468 11.575Z" stroke="white" stroke-width="2" stroke-linecap="round" stroke-linejoin="round"/>
<path d="M15.3868 11.575C15.6345 11.575 15.8352 11.3742 15.8352 11.1266C15.8352 10.879 15.6345 10.6783 15.3868 10.6783C15.1392 10.6783 14.9385 10.879 14.9385 11.1266C14.9385 11.3742 15.1392 11.575 15.3868 11.575Z" stroke="white" stroke-width="2" stroke-linecap="round" stroke-linejoin="round"/>
</svg>
