<svg width="24" height="25" viewBox="0 0 24 25" fill="none" xmlns="http://www.w3.org/2000/svg">
<path d="M5.991 3.71199C6.72956 2.8838 7.63419 2.22036 8.64605 1.76482C9.65791 1.30929 10.7543 1.07186 11.864 1.06799C14.067 1.12276 16.1582 2.04982 17.6781 3.64548C19.198 5.24115 20.0224 7.37491 19.97 9.57799V12.223C19.8341 15.3215 20.8121 18.3663 22.727 20.806H1C2.91491 18.3663 3.89294 15.3215 3.757 12.223V9.57799C3.75548 8.48387 3.95653 7.39892 4.35 6.37799" stroke="white" stroke-width="2" stroke-linecap="round" stroke-linejoin="round"/>
<path d="M12.9321 21.348C13.049 21.5374 13.1136 21.7544 13.119 21.977C13.1245 22.1995 13.0708 22.4195 12.9633 22.6144C12.8558 22.8093 12.6985 22.9722 12.5074 23.0863C12.3163 23.2004 12.0983 23.2617 11.8757 23.2639C11.6531 23.266 11.434 23.209 11.2407 23.0987C11.0474 22.9883 10.8869 22.8285 10.7756 22.6358C10.6643 22.443 10.6063 22.2241 10.6074 22.0015C10.6086 21.7789 10.6688 21.5606 10.7821 21.369" stroke="white" stroke-width="2" stroke-linecap="round" stroke-linejoin="round"/>
</svg>
