<svg width="18" height="22" viewBox="0 0 18 22" fill="none" xmlns="http://www.w3.org/2000/svg">
<g clip-path="url(#clip0_142_974)">
<path d="M15.4415 9.72223V6.48859C15.4415 4.76771 14.7627 3.11731 13.5545 1.90046C12.3463 0.683617 10.7076 0 8.99889 0C7.29021 0 5.65152 0.683617 4.44331 1.90046C3.23509 3.11731 2.55632 4.76771 2.55632 6.48859V9.72223C1.84198 9.84848 1.19447 10.2237 0.727136 10.7823C0.259799 11.3409 0.00240392 12.0472 0 12.7777L0 18.8863C0.000589551 19.7119 0.326503 20.5035 0.906168 21.0874C1.48583 21.6712 2.27186 21.9994 3.09163 22H14.9128C15.7322 21.9991 16.5178 21.6709 17.0972 21.0874C17.6766 20.5038 18.0025 19.7126 18.0033 18.8874V12.7777C18.0013 12.0465 17.7436 11.3394 17.2755 10.7805C16.8075 10.2215 16.1589 9.84649 15.4437 9.72111L15.4415 9.72223ZM9.88364 15.5002V17.6735C9.88785 17.793 9.86813 17.9121 9.82564 18.0237C9.78316 18.1353 9.71879 18.2371 9.63637 18.3231C9.55396 18.4091 9.45518 18.4775 9.34594 18.5243C9.2367 18.571 9.11924 18.5951 9.00056 18.5951C8.88188 18.5951 8.76441 18.571 8.65517 18.5243C8.54593 18.4775 8.44716 18.4091 8.36474 18.3231C8.28232 18.2371 8.21795 18.1353 8.17547 18.0237C8.13299 17.9121 8.11326 17.793 8.11747 17.6735V15.5013C7.94684 15.3703 7.80806 15.2019 7.71165 15.0089C7.61524 14.8159 7.56373 14.6033 7.56102 14.3872C7.56102 14.0034 7.7124 13.6354 7.98184 13.364C8.25128 13.0926 8.61672 12.9402 8.99777 12.9402C9.37882 12.9402 9.74427 13.0926 10.0137 13.364C10.2832 13.6354 10.4345 14.0034 10.4345 14.3872C10.4316 14.6031 10.3801 14.8155 10.2837 15.0083C10.1872 15.2011 10.0486 15.3693 9.87808 15.5002H9.88364ZM13.0877 9.67179H4.91233V6.48859C4.91233 5.39672 5.34299 4.34958 6.10958 3.57752C6.87617 2.80545 7.91588 2.37171 9 2.37171C10.0841 2.37171 11.1238 2.80545 11.8904 3.57752C12.657 4.34958 13.0877 5.39672 13.0877 6.48859V9.67179Z" fill="#7D94CC"/>
</g>
<defs>
<clipPath id="clip0_142_974">
<rect width="18" height="22" fill="white"/>
</clipPath>
</defs>
</svg>
