<svg width="31" height="27" viewBox="0 0 31 27" fill="none" xmlns="http://www.w3.org/2000/svg">
<path d="M19.6795 17.454C22.6425 17.454 25.0445 15.052 25.0445 12.089C25.0445 9.12599 22.6425 6.724 19.6795 6.724C16.7164 6.724 14.3145 9.12599 14.3145 12.089C14.3145 15.052 16.7164 17.454 19.6795 17.454Z" stroke="#FAFAFA" stroke-width="2" stroke-linecap="round" stroke-linejoin="round"/>
<path d="M29.0476 25.628C29.0476 23.4601 28.1864 21.381 26.6535 19.8481C25.1206 18.3152 23.0415 17.454 20.8736 17.454H18.3166C16.1486 17.454 14.0694 18.3151 12.5364 19.848C11.0033 21.3809 10.1419 23.46 10.1416 25.628" stroke="#FAFAFA" stroke-width="2" stroke-linecap="round" stroke-linejoin="round"/>
<path d="M8.33896 9.258C10.6193 9.258 12.468 7.40938 12.468 5.129C12.468 2.84862 10.6193 1 8.33896 1C6.05858 1 4.20996 2.84862 4.20996 5.129C4.20996 7.40938 6.05858 9.258 8.33896 9.258Z" stroke="#FAFAFA" stroke-width="2" stroke-linecap="round" stroke-linejoin="round"/>
<path d="M9.258 9.25806H7.291C5.62252 9.25806 4.02238 9.92086 2.84259 11.1006C1.6628 12.2804 1 13.8806 1 15.5491" stroke="#FAFAFA" stroke-width="2" stroke-linecap="round" stroke-linejoin="round"/>
<path d="M6.59863 9.25806H8.56563C9.47379 9.25729 10.3713 9.4536 11.1962 9.83342C12.0211 10.2132 12.7538 10.7675 13.3436 11.4581" stroke="#FAFAFA" stroke-width="2" stroke-linecap="round" stroke-linejoin="round"/>
</svg>
