<svg width="32" height="26" viewBox="0 0 32 26" fill="none" xmlns="http://www.w3.org/2000/svg">
<g clip-path="url(#clip0_393_2701)">
<path d="M1.4352 4.57306H26.9035C27.2995 4.57306 27.6532 4.73087 27.9104 4.98311C28.1671 5.23534 28.3281 5.59296 28.3281 5.97119V23.8223C28.3281 24.2112 28.1671 24.5581 27.9104 24.8106C27.8891 24.8315 27.8674 24.8526 27.8355 24.8735C27.5889 25.0944 27.2572 25.2204 26.8929 25.2204H1.42457C1.02837 25.2204 0.674689 25.0629 0.417726 24.8106C0.160764 24.5584 0 24.201 0 23.8225V5.97144C0 5.58252 0.160764 5.2356 0.417726 4.98336C0.674689 4.73112 1.039 4.57331 1.42457 4.57331H1.4352V4.57306ZM7.31682 9.41979C8.4458 9.41979 9.3606 10.3178 9.3606 11.426C9.3606 12.5342 8.4458 13.4324 7.31682 13.4324C6.18785 13.4324 5.27305 12.5342 5.27305 11.426C5.27279 10.318 6.18785 9.41979 7.31682 9.41979ZM15.9179 18.0297L20.006 11.0918L24.3487 21.8744L4.08081 21.8741V20.5368L5.78438 20.4536L7.48718 16.3575L8.33819 19.2835H10.8936L13.1072 13.6829L15.9179 18.0297ZM5.67626 2.30216C5.20511 2.30216 4.83017 1.92393 4.83017 1.47163C4.83017 1.00915 5.21575 0.641357 5.67626 0.641357H31.0162C31.4871 0.641357 31.8621 1.01984 31.8621 1.47188V19.0076C31.8621 19.4704 31.4768 19.8384 31.0162 19.8384C30.5448 19.8384 30.1699 19.4599 30.1699 19.0076V2.31285H5.67626V2.30216ZM26.6357 6.23437H1.7028V23.5492H26.6354V6.23437H26.6357Z" fill="#7E93CB"/>
</g>
<defs>
<clipPath id="clip0_393_2701">
<rect width="31.8621" height="24.5793" fill="white" transform="translate(0 0.641357)"/>
</clipPath>
</defs>
</svg>
