<svg width="19" height="21" viewBox="0 0 19 21" fill="none" xmlns="http://www.w3.org/2000/svg">
<g clip-path="url(#clip0_142_970)">
<path d="M15.472 5.18398C14.0738 3.72008 12.1868 2.82053 10.1691 2.6561C8.15145 2.49166 6.14365 3.07379 4.52687 4.29198C2.91009 5.51016 1.79688 7.27959 1.39857 9.26436C1.00026 11.2491 1.34458 13.3111 2.36617 15.0587C3.38776 16.8064 5.01549 18.1181 6.94036 18.7449C8.86523 19.3716 10.9532 19.2698 12.808 18.4587C14.6627 17.6476 16.1551 16.1838 17.0018 14.345C17.8485 12.5062 17.9905 10.4206 17.401 8.48398" stroke="#7D94CC" stroke-width="2" stroke-linecap="round" stroke-linejoin="round"/>
<path d="M11.4719 6.022L15.8329 5.559L15.3709 1.198" stroke="#7D94CC" stroke-width="2" stroke-linecap="round" stroke-linejoin="round"/>
</g>
<defs>
<clipPath id="clip0_142_970">
<rect width="18.956" height="20.371" fill="white"/>
</clipPath>
</defs>
</svg>
