<svg width="23" height="21" viewBox="0 0 23 21" fill="none" xmlns="http://www.w3.org/2000/svg">
<g clip-path="url(#clip0_746_4065)">
<path d="M0.439471 15.894L8.47487 1.92039L8.50669 1.86956C8.84065 1.32241 9.29139 0.856806 9.82627 0.506458C10.3331 0.179466 10.9218 0.00384647 11.5239 2.48239e-06C12.1291 -0.000762243 12.7214 0.175174 13.2291 0.506458C13.7618 0.857942 14.2095 1.325 14.5393 1.87332C14.563 1.91349 14.5855 1.95302 14.6067 1.99193L22.5111 15.7999L22.556 15.8827C22.8518 16.4782 23.0038 17.1355 22.9996 17.8012C22.9957 18.351 22.8562 18.8912 22.5934 19.3733C22.2978 19.9114 21.845 20.3451 21.2963 20.6159C21.2608 20.6348 21.2233 20.6498 21.1878 20.6649C20.6505 20.9 20.0682 21.0126 19.4826 20.9944H3.29575C3.25458 20.9944 3.2134 20.9944 3.17409 20.9944C2.77764 20.9912 2.38483 20.9179 2.01361 20.7778C1.4233 20.5529 0.916167 20.1506 0.561134 19.6256C0.203508 19.0928 0.00834489 18.4666 -0.000388925 17.8238C-0.0096293 17.2613 0.0901853 16.7024 0.293475 16.1783C0.330913 16.0785 0.37925 15.9831 0.437599 15.894H0.439471Z" fill="white"/>
<path fill-rule="evenodd" clip-rule="evenodd" d="M1.68409 16.7092L9.75505 2.6659C10.7358 1.11264 12.2894 1.07311 13.287 2.6659L21.2288 16.5398C21.8634 17.8219 21.5489 19.5521 19.4825 19.5088H3.29566C1.93677 19.5427 1.0608 18.3434 1.68409 16.7092Z" fill="#7E93CB"/>
<path d="M10.776 15.5684C10.9482 15.3958 11.1757 15.2904 11.418 15.2709C11.5701 15.26 11.7228 15.2823 11.8656 15.3363C12.0083 15.3902 12.1379 15.4745 12.2453 15.5834C12.4233 15.7613 12.5311 15.9981 12.5485 16.2499C12.5571 16.3384 12.5546 16.4276 12.541 16.5154C12.5247 16.6023 12.4983 16.687 12.4624 16.7677C12.3545 17.0094 12.159 17.2006 11.9158 17.3024C11.7795 17.3578 11.6333 17.3847 11.4862 17.3815C11.3392 17.3782 11.1943 17.3449 11.0605 17.2836C10.8214 17.1733 10.6332 16.9753 10.5345 16.73C10.5022 16.6535 10.4796 16.5731 10.4671 16.4909C10.4541 16.4088 10.4504 16.3254 10.4559 16.2424C10.471 16.1119 10.507 15.9847 10.5626 15.8659C10.6122 15.7539 10.685 15.6538 10.776 15.5722V15.5684ZM12.3014 13.6405C12.2659 14.5423 10.746 14.5442 10.7123 13.6405C10.5588 12.0947 10.1658 8.4253 10.177 6.97183C10.1901 6.52374 10.5513 6.26016 11.0305 6.15849C11.1837 6.12595 11.34 6.1108 11.4966 6.1133C11.6538 6.11216 11.8106 6.12793 11.9645 6.16037C12.453 6.26392 12.8349 6.53692 12.8349 6.99631V7.04149L12.3014 13.6405Z" fill="white"/>
</g>
<defs>
<clipPath id="clip0_746_4065">
<rect width="23" height="21" fill="white"/>
</clipPath>
</defs>
</svg>
