<svg width="24" height="22" viewBox="0 0 24 22" fill="none" xmlns="http://www.w3.org/2000/svg">
<path d="M13.5187 19.9218L13.2802 20.3612C13.095 20.2607 12.9384 20.1089 12.837 19.9182C12.8368 19.9178 12.8365 19.9173 12.8363 19.9168L9.79944 14.2473C9.70631 14.0735 9.72409 13.8611 9.84483 13.7052L14.1427 8.15377L7.9228 12.0717C7.78326 12.1596 7.60934 12.173 7.45795 12.1076L1.15418 9.38315L1.15359 9.38289C0.961049 9.29938 0.791772 9.16336 0.672699 8.98456C0.553098 8.80496 0.491176 8.59213 0.501014 8.37312C0.510847 8.15425 0.591459 7.94827 0.725108 7.7801C0.858203 7.61263 1.0371 7.49064 1.23493 7.42201C1.23493 7.42201 1.23494 7.42201 1.23494 7.42201L20.9219 0.592298C21.1133 0.511434 21.3238 0.483412 21.5291 0.509394C21.7427 0.536417 21.9481 0.621614 22.1169 0.760501C22.2861 0.899819 22.4124 1.08859 22.4692 1.30635M13.5187 19.9218L21.9854 1.43261M13.5187 19.9218L13.2802 20.3612C13.4656 20.4618 13.6753 20.5091 13.8843 20.5012C14.0933 20.4933 14.2992 20.4302 14.4764 20.3147C14.6537 20.1992 14.7975 20.034 14.8817 19.8338C14.8818 19.8335 14.8819 19.8332 14.8821 19.833L22.4198 1.96046M13.5187 19.9218L22.4198 1.96046M22.4692 1.30635L21.9854 1.43261M22.4692 1.30635C22.4692 1.30635 22.4692 1.30635 22.4692 1.30635L21.9854 1.43261M22.4692 1.30635C22.5261 1.52436 22.5084 1.75279 22.4204 1.959L22.4209 1.95792L21.9602 1.76362M21.9854 1.43261C22.0142 1.54272 22.0054 1.6581 21.9602 1.76362M21.9602 1.76362L22.4198 1.96046M21.9602 1.76362L22.4198 1.96046" stroke="#8E9BB7" stroke-linejoin="round"/>
</svg>
