<svg width="18" height="18" viewBox="0 0 18 18" fill="none" xmlns="http://www.w3.org/2000/svg">
<path fill-rule="evenodd" clip-rule="evenodd" d="M1.5 6C1.5 5.40326 1.73705 4.83097 2.15901 4.40901C2.58097 3.98705 3.15326 3.75 3.75 3.75H14.25C14.8467 3.75 15.419 3.98705 15.841 4.40901C16.2629 4.83097 16.5 5.40326 16.5 6V12C16.5 12.5967 16.2629 13.169 15.841 13.591C15.419 14.0129 14.8467 14.25 14.25 14.25H3.75C3.15326 14.25 2.58097 14.0129 2.15901 13.591C1.73705 13.169 1.5 12.5967 1.5 12V6ZM3.75 5.25C3.55109 5.25 3.36032 5.32902 3.21967 5.46967C3.07902 5.61032 3 5.80109 3 6V12C3 12.1989 3.07902 12.3897 3.21967 12.5303C3.36032 12.671 3.55109 12.75 3.75 12.75H14.25C14.4489 12.75 14.6397 12.671 14.7803 12.5303C14.921 12.3897 15 12.1989 15 12V6C15 5.80109 14.921 5.61032 14.7803 5.46967C14.6397 5.32902 14.4489 5.25 14.25 5.25H3.75Z" fill="#7E93CB"/>
<path fill-rule="evenodd" clip-rule="evenodd" d="M9.75 8.25C9.55109 8.25 9.36032 8.32902 9.21967 8.46967C9.07902 8.61032 9 8.80109 9 9C9 9.19891 9.07902 9.38968 9.21967 9.53033C9.36032 9.67098 9.55109 9.75 9.75 9.75C9.94891 9.75 10.1397 9.67098 10.2803 9.53033C10.421 9.38968 10.5 9.19891 10.5 9C10.5 8.80109 10.421 8.61032 10.2803 8.46967C10.1397 8.32902 9.94891 8.25 9.75 8.25ZM7.5 9C7.5 8.40326 7.73705 7.83097 8.15901 7.40901C8.58097 6.98705 9.15326 6.75 9.75 6.75C10.3467 6.75 10.919 6.98705 11.341 7.40901C11.7629 7.83097 12 8.40326 12 9C12 9.59674 11.7629 10.169 11.341 10.591C10.919 11.0129 10.3467 11.25 9.75 11.25C9.15326 11.25 8.58097 11.0129 8.15901 10.591C7.73705 10.169 7.5 9.59674 7.5 9ZM9.75 3.75C9.75 3.55109 9.82902 3.36032 9.96967 3.21967C10.1103 3.07902 10.3011 3 10.5 3H13.5C13.6989 3 13.8897 3.07902 14.0303 3.21967C14.171 3.36032 14.25 3.55109 14.25 3.75C14.25 3.94891 14.171 4.13968 14.0303 4.28033C13.8897 4.42098 13.6989 4.5 13.5 4.5H10.5C10.3011 4.5 10.1103 4.42098 9.96967 4.28033C9.82902 4.13968 9.75 3.94891 9.75 3.75Z" fill="#7E93CB"/>
<path d="M6 7.5C6 7.69891 5.92098 7.88968 5.78033 8.03033C5.63968 8.17098 5.44891 8.25 5.25 8.25C5.05109 8.25 4.86032 8.17098 4.71967 8.03033C4.57902 7.88968 4.5 7.69891 4.5 7.5C4.5 7.30109 4.57902 7.11032 4.71967 6.96967C4.86032 6.82902 5.05109 6.75 5.25 6.75C5.44891 6.75 5.63968 6.82902 5.78033 6.96967C5.92098 7.11032 6 7.30109 6 7.5Z" fill="#7E93CB"/>
</svg>
