<?xml version="1.0" encoding="utf-8"?>
<!-- Generator: Adobe Illustrator 26.5.0, SVG Export Plug-In . SVG Version: 6.00 Build 0)  -->
<svg version="1.1" id="Ebene_1" xmlns="http://www.w3.org/2000/svg" xmlns:xlink="http://www.w3.org/1999/xlink" x="0px" y="0px"
	 viewBox="0 0 1041.14 300" style="enable-background:new 0 0 1041.14 300;" xml:space="preserve">
<style type="text/css">
	.st0{fill:#FFFFFF;}
</style>
<path class="st0" d="M477.51,124.45h-20.12c-1.21,0-2.27,0.61-2.72,1.82l-14.07,42.97l-14.83-42.97c-0.3-0.76-0.76-1.36-1.51-1.51
	c-0.3-0.15-0.76-0.3-1.21-0.3h-19.06c-0.45,0-0.91,0.15-1.21,0.3c-0.76,0.15-1.21,0.76-1.51,1.51l-14.52,42.97l-14.37-42.97
	c-0.45-1.21-1.51-1.82-2.72-1.82h-19.97c-1.66,0-2.42,0.91-1.82,2.57l25.57,69.75c0.45,1.21,1.51,1.82,2.72,1.82h19.52
	c1.21,0,2.27-0.61,2.72-1.82l15.13-39.94l15.28,39.94c0.45,1.21,1.51,1.82,2.72,1.82h19.37c1.21,0,2.27-0.61,2.72-1.82l25.72-69.75
	C479.93,125.36,479.18,124.45,477.51,124.45L477.51,124.45z M553.77,160.61c0-20.73-13.92-37.83-35.56-37.83
	c-21.49,0-37.83,17.1-37.83,38.88s16.04,38.89,39.79,38.89c10.59,0,20.28-4.39,27.39-11.35c1.21-1.21,1.36-2.27,0.3-3.33l-8.78-8.62
	c-0.91-1.06-1.81-1.21-3.33-0.3c-5.3,3.18-9.23,3.78-13.32,3.78c-8.93,0-15.13-3.33-17.25-10.29h42.82
	C552.86,170.45,553.77,167.12,553.77,160.61L553.77,160.61z M518.52,143.67c6.2,0,11.5,3.33,13.01,11.2h-26.78
	C506.41,147,512.16,143.67,518.52,143.67L518.52,143.67z M607.94,122.64c-8.32,0-15.13,3.93-20.27,9.68l-0.45-5.6
	c-0.15-1.36-0.91-2.27-2.27-2.27h-18.46c-1.36,0-2.27,0.91-2.27,2.27v69.6c0,0.3,0,0.6,0.15,0.91v27.84c0,1.36,0.91,2.27,2.27,2.27
	h20.43c1.36,0,2.27-0.91,2.27-2.27V193.3c4.84,4.39,10.89,7.41,18.61,7.41c20.43,0,35.56-17.4,35.56-39.04
	C643.49,140.04,628.36,122.64,607.94,122.64L607.94,122.64z M604.76,177.86c-8.62,0-14.83-7.57-14.83-16.34
	c0-8.62,6.2-16.04,14.83-16.04c8.47,0,14.68,6.81,14.68,16.04S613.23,177.86,604.76,177.86L604.76,177.86z M724.44,160.61
	c0-20.73-13.92-37.83-35.56-37.83c-21.48,0-37.83,17.1-37.83,38.88s16.04,38.89,39.79,38.89c10.59,0,20.28-4.39,27.39-11.35
	c1.21-1.21,1.36-2.27,0.3-3.33l-8.78-8.62c-0.91-1.06-1.82-1.21-3.33-0.3c-5.29,3.18-9.23,3.78-13.31,3.78
	c-8.93,0-15.13-3.33-17.25-10.29h42.82C723.53,170.45,724.44,167.12,724.44,160.61L724.44,160.61z M689.19,143.67
	c6.2,0,11.5,3.33,13.01,11.2h-26.78C677.08,147,682.83,143.67,689.19,143.67L689.19,143.67z M782.39,122.79
	c-10.44,0-17.85,5.45-22.39,13.01l-0.6-9.08c-0.15-1.36-0.91-2.27-2.27-2.27H737.3c-1.36,0-2.27,0.91-2.27,2.27v69.6
	c0,1.36,0.91,2.27,2.27,2.27h20.43c1.36,0,2.27-0.91,2.27-2.27V158.8c0-3.63,3.48-12.71,12.71-12.71c5.14,0,11.8,2.57,11.8,14.37
	v35.86c0,1.36,0.91,2.27,2.27,2.27h20.43c1.36,0,2.27-0.91,2.27-2.27v-41.15C809.47,135.35,797.22,122.79,782.39,122.79
	L782.39,122.79z M897.23,88.14H876.8c-1.36,0-2.27,0.91-2.27,2.27v40.25c-4.99-4.84-11.35-8.02-18.76-8.02
	c-20.43,0-35.56,17.4-35.56,39.04c0,21.64,15.13,39.04,35.56,39.04c8.62,0,15.28-3.78,20.27-9.08l0.45,4.69
	c0.15,1.36,0.91,2.27,2.27,2.27h18.46c1.36,0,2.27-0.91,2.27-2.27V90.41C899.5,89.05,898.59,88.14,897.23,88.14L897.23,88.14z
	 M858.95,177.86c-8.47,0-14.68-7.11-14.68-16.34s6.2-16.04,14.68-16.04c8.62,0,14.83,7.41,14.83,16.04
	C873.78,170.3,867.57,177.86,858.95,177.86L858.95,177.86z M924.77,112.35c7.26,0,13.16-5.9,13.16-13.16
	c0-7.26-5.9-13.16-13.16-13.16c-7.26,0-13.16,5.9-13.16,13.16C911.6,106.45,917.5,112.35,924.77,112.35L924.77,112.35z
	 M912.36,126.72v69.6c0,1.36,0.91,2.27,2.27,2.27h20.43c1.36,0,2.27-0.91,2.27-2.27v-69.6c0-1.36-0.91-2.27-2.27-2.27h-20.43
	C913.27,124.45,912.36,125.36,912.36,126.72L912.36,126.72z M987.1,200.56c21.34,0,38.89-17.25,38.89-38.89
	c0-21.79-17.55-38.88-38.89-38.88c-21.48,0-38.89,17.1-38.89,38.88C948.22,183.31,965.62,200.56,987.1,200.56L987.1,200.56z
	 M987.1,177.26c-8.17,0-14.83-6.51-14.83-15.59c0-9.23,6.66-15.74,14.83-15.74c8.17,0,14.83,6.51,14.83,15.74
	C1001.93,170.75,995.27,177.26,987.1,177.26L987.1,177.26z"/>
<g>
	<path class="st0" d="M154.18,99.96c-13.87,0-25.11,11.24-25.11,25.11c0,13.86,11.24,25.1,25.11,25.1c13.86,0,25.1-11.24,25.1-25.1
		C179.28,111.2,168.04,99.96,154.18,99.96z"/>
	<path class="st0" d="M214.7,14H93.65C51.87,14,18,47.87,18,89.65V210.7c0,41.78,33.87,75.65,75.65,75.65H214.7
		c41.78,0,75.65-33.87,75.65-75.65V89.65C290.35,47.87,256.48,14,214.7,14z M106.25,214.56c-15.2,0-27.52-12.32-27.52-27.52
		c0-15.2,12.32-27.52,27.52-27.52c15.2,0,27.52,12.32,27.52,27.52C133.77,202.24,121.45,214.56,106.25,214.56z M154.18,238.05
		c0,0-8.99-8.58-20.16-22.11c7.59-7.3,12.33-17.53,12.33-28.89c0-22.14-17.95-40.1-40.1-40.1c-3.89,0-7.63,0.58-11.19,1.61
		c-2.29-7.84-3.65-15.73-3.65-23.49c0-34.67,28.1-62.77,62.77-62.77c34.66,0,62.76,28.1,62.76,62.77
		C216.94,178.18,154.18,238.05,154.18,238.05z"/>
</g>
</svg>
